<svg preserveAspectRatio="none" width="1363" height="57" viewBox="0 0 1363 57" fill="none" xmlns="http://www.w3.org/2000/svg">
<line y1="1.5" x2="1363" y2="1.5" stroke="black" stroke-width="3"/>
<line y1="7.5" x2="1363" y2="7.5" stroke="black" stroke-width="3"/>
<line y1="55.5" x2="1363" y2="55.5" stroke="black" stroke-width="3"/>
<line y1="48.5" x2="1363" y2="48.5" stroke="black" stroke-width="3"/>
<line x1="1" x2="1" y2="9" stroke="black" stroke-width="2"/>
<line x1="1" y1="48" x2="1" y2="56" stroke="black" stroke-width="2"/>
<line x1="1362" y1="48" x2="1362" y2="55" stroke="black" stroke-width="2"/>
<line x1="1362" y1="2" x2="1362" y2="7" stroke="black" stroke-width="2"/>
<line x1="7.5" y1="9" x2="7.5" y2="50" stroke="black" stroke-width="3"/>
<line x1="1355.5" y1="9" x2="1355.5" y2="48" stroke="black" stroke-width="3"/>
<path d="M1097.5 29.5H1177.5H1257.5" stroke="black" stroke-width="8"/>
<circle cx="27.5714" cy="18.5714" r="3.57143" fill="black"/>
<circle cx="41.8571" cy="27.1429" r="3.57143" fill="black"/>
<circle cx="56.1429" cy="18.5714" r="3.57143" fill="black"/>
<circle cx="56.1429" cy="36.4286" r="3.57143" fill="black"/>
<circle cx="27.5714" cy="36.4286" r="3.57143" fill="black"/>
<g clip-path="url(#clip0_5_46)">
<path d="M1301.57 22.1429C1303.54 22.1429 1305.14 20.5439 1305.14 18.5714C1305.14 16.599 1303.54 15 1301.57 15C1299.6 15 1298 16.599 1298 18.5714C1298 20.5439 1299.6 22.1429 1301.57 22.1429Z" fill="black"/>
<path d="M1315.86 30.7143C1317.83 30.7143 1319.43 29.1153 1319.43 27.1429C1319.43 25.1705 1317.83 23.5715 1315.86 23.5715C1313.88 23.5715 1312.29 25.1705 1312.29 27.1429C1312.29 29.1153 1313.88 30.7143 1315.86 30.7143Z" fill="black"/>
<path d="M1330.14 22.1429C1332.12 22.1429 1333.71 20.5439 1333.71 18.5714C1333.71 16.599 1332.12 15 1330.14 15C1328.17 15 1326.57 16.599 1326.57 18.5714C1326.57 20.5439 1328.17 22.1429 1330.14 22.1429Z" fill="black"/>
<path d="M1330.14 40C1332.12 40 1333.71 38.4011 1333.71 36.4286C1333.71 34.4562 1332.12 32.8572 1330.14 32.8572C1328.17 32.8572 1326.57 34.4562 1326.57 36.4286C1326.57 38.4011 1328.17 40 1330.14 40Z" fill="black"/>
<path d="M1301.57 40C1303.54 40 1305.14 38.4011 1305.14 36.4286C1305.14 34.4562 1303.54 32.8572 1301.57 32.8572C1299.6 32.8572 1298 34.4562 1298 36.4286C1298 38.4011 1299.6 40 1301.57 40Z" fill="black"/>
</g>
<g clip-path="url(#clip1_5_46)">
<path d="M664.571 24.1429C666.544 24.1429 668.143 22.5439 668.143 20.5714C668.143 18.599 666.544 17 664.571 17C662.599 17 661 18.599 661 20.5714C661 22.5439 662.599 24.1429 664.571 24.1429Z" fill="black"/>
<path d="M693.143 24.1429C695.115 24.1429 696.714 22.5439 696.714 20.5714C696.714 18.599 695.115 17 693.143 17C691.17 17 689.571 18.599 689.571 20.5714C689.571 22.5439 691.17 24.1429 693.143 24.1429Z" fill="black"/>
<path d="M693.143 42C695.115 42 696.714 40.4011 696.714 38.4286C696.714 36.4562 695.115 34.8572 693.143 34.8572C691.17 34.8572 689.571 36.4562 689.571 38.4286C689.571 40.4011 691.17 42 693.143 42Z" fill="black"/>
<path d="M664.571 42C666.544 42 668.143 40.4011 668.143 38.4286C668.143 36.4562 666.544 34.8572 664.571 34.8572C662.599 34.8572 661 36.4562 661 38.4286C661 40.4011 662.599 42 664.571 42Z" fill="black"/>
</g>
<defs>
<clipPath id="clip0_5_46">
<rect width="36" height="25" fill="white" transform="translate(1298 15)"/>
</clipPath>
<clipPath id="clip1_5_46">
<rect width="36" height="25" fill="white" transform="translate(661 17)"/>
</clipPath>
</defs>
</svg>
