<svg width="2578" height="57" viewBox="0 0 2578 57" fill="none" xmlns="http://www.w3.org/2000/svg">
<rect y="50" width="13.2399" height="4" fill="#D9D9D9"/>
<rect y="3" width="13.2399" height="4" fill="#D9D9D9"/>
<rect x="2560.98" y="50" width="13.2399" height="4" fill="#D9D9D9"/>
<rect x="2560.98" y="3" width="13.2399" height="4" fill="#D9D9D9"/>
<rect x="11.3485" y="3" width="2549.63" height="52" fill="#D9D9D9"/>
<line y1="1.5" x2="2578" y2="1.5" stroke="black" stroke-width="3"/>
<line y1="7.5" x2="2578" y2="7.5" stroke="black" stroke-width="3"/>
<line y1="55.5" x2="2578" y2="55.5" stroke="black" stroke-width="3"/>
<line y1="48.5" x2="2578" y2="48.5" stroke="black" stroke-width="3"/>
<line x1="1" x2="1" y2="9" stroke="black" stroke-width="2"/>
<line x1="1" y1="48" x2="1" y2="56" stroke="black" stroke-width="2"/>
<line x1="2575.22" y1="48" x2="2575.22" y2="55" stroke="black" stroke-width="2"/>
<line x1="2575.22" y1="2" x2="2575.22" y2="7" stroke="black" stroke-width="2"/>
<line x1="12.8485" y1="9" x2="12.8485" y2="50" stroke="black" stroke-width="3"/>
<line x1="2562.48" y1="9" x2="2562.48" y2="48" stroke="black" stroke-width="3"/>
<path d="M2075.83 29.5H2227.14H2378.46" stroke="black" stroke-width="8"/>
<circle cx="36.5714" cy="20.5714" r="3.57143" fill="black"/>
<circle cx="50.8572" cy="29.1428" r="3.57143" fill="black"/>
<circle cx="65.1428" cy="20.5714" r="3.57143" fill="black"/>
<circle cx="65.1428" cy="38.4286" r="3.57143" fill="black"/>
<circle cx="36.5714" cy="38.4286" r="3.57143" fill="black"/>
<g clip-path="url(#clip0_5_85)">
<path d="M2516.57 22.1429C2518.54 22.1429 2520.14 20.5439 2520.14 18.5714C2520.14 16.599 2518.54 15 2516.57 15C2514.6 15 2513 16.599 2513 18.5714C2513 20.5439 2514.6 22.1429 2516.57 22.1429Z" fill="black"/>
<path d="M2530.86 30.7143C2532.83 30.7143 2534.43 29.1153 2534.43 27.1428C2534.43 25.1704 2532.83 23.5714 2530.86 23.5714C2528.88 23.5714 2527.29 25.1704 2527.29 27.1428C2527.29 29.1153 2528.88 30.7143 2530.86 30.7143Z" fill="black"/>
<path d="M2545.14 22.1429C2547.12 22.1429 2548.71 20.5439 2548.71 18.5714C2548.71 16.599 2547.12 15 2545.14 15C2543.17 15 2541.57 16.599 2541.57 18.5714C2541.57 20.5439 2543.17 22.1429 2545.14 22.1429Z" fill="black"/>
<path d="M2545.14 40C2547.12 40 2548.71 38.4011 2548.71 36.4286C2548.71 34.4562 2547.12 32.8572 2545.14 32.8572C2543.17 32.8572 2541.57 34.4562 2541.57 36.4286C2541.57 38.4011 2543.17 40 2545.14 40Z" fill="black"/>
<path d="M2516.57 40C2518.54 40 2520.14 38.4011 2520.14 36.4286C2520.14 34.4562 2518.54 32.8572 2516.57 32.8572C2514.6 32.8572 2513 34.4562 2513 36.4286C2513 38.4011 2514.6 40 2516.57 40Z" fill="black"/>
</g>
<g clip-path="url(#clip1_5_85)">
<path d="M1228.57 24.1429C1230.54 24.1429 1232.14 22.5439 1232.14 20.5714C1232.14 18.599 1230.54 17 1228.57 17C1226.6 17 1225 18.599 1225 20.5714C1225 22.5439 1226.6 24.1429 1228.57 24.1429Z" fill="black"/>
<path d="M1257.14 24.1429C1259.12 24.1429 1260.71 22.5439 1260.71 20.5714C1260.71 18.599 1259.12 17 1257.14 17C1255.17 17 1253.57 18.599 1253.57 20.5714C1253.57 22.5439 1255.17 24.1429 1257.14 24.1429Z" fill="black"/>
<path d="M1257.14 42C1259.12 42 1260.71 40.4011 1260.71 38.4286C1260.71 36.4562 1259.12 34.8572 1257.14 34.8572C1255.17 34.8572 1253.57 36.4562 1253.57 38.4286C1253.57 40.4011 1255.17 42 1257.14 42Z" fill="black"/>
<path d="M1228.57 42C1230.54 42 1232.14 40.4011 1232.14 38.4286C1232.14 36.4562 1230.54 34.8572 1228.57 34.8572C1226.6 34.8572 1225 36.4562 1225 38.4286C1225 40.4011 1226.6 42 1228.57 42Z" fill="black"/>
</g>
<defs>
<clipPath id="clip0_5_85">
<rect width="36" height="25" fill="white" transform="translate(2513 15)"/>
</clipPath>
<clipPath id="clip1_5_85">
<rect width="36" height="25" fill="white" transform="translate(1225 17)"/>
</clipPath>
</defs>
</svg>
