<svg width="1193" height="537" viewBox="0 0 1193 537" fill="none" xmlns="http://www.w3.org/2000/svg">
<line x1="0.5" y1="537" x2="0.499971" y2="1.74172e-08" stroke="black"/>
<path d="M62.1552 18.1138C149.574 18.1138 236.466 11.398 323.785 9.19162C457.376 5.81602 591.331 4.03679 724.983 3.89198C805.158 3.80511 885.232 5.5905 964.894 13.2837C1000.01 16.6747 1034.95 21.7082 1069.78 26.5664" stroke="black" stroke-width="3" stroke-linecap="round"/>
<path d="M59.1248 70.0369C82.5458 72.4452 106.618 71.2958 130.172 71.2444C221.895 71.0441 313.562 67.5286 405.27 66.4143C667.66 63.2262 929.117 81.951 1191 91.7721" stroke="black" stroke-width="3" stroke-linecap="round"/>
<path d="M553.089 14.4912H551.574" stroke="black" stroke-width="3" stroke-linecap="round"/>
<path d="M556.12 51.9242C555.85 49.9882 552.439 49.7391 556.12 50.7166" stroke="black" stroke-width="3" stroke-linecap="round"/>
<path d="M601.576 51.9242C604.389 51.644 602.034 48.3707 601.576 47.0941" stroke="black" stroke-width="3" stroke-linecap="round"/>
<path d="M610.668 18.1138C610.668 18.9122 611.982 18.1138 609.152 18.1138" stroke="black" stroke-width="3" stroke-linecap="round"/>
<path d="M51.5486 27.7739C55.3369 25.3587 62.0525 27.7739 66.7009 27.7739C87.2978 27.7739 107.79 28.2768 128.573 27.841C199.995 26.3432 271.696 27.7739 343.146 27.7739C432.932 27.7739 522.709 25.3589 612.52 25.3589C649.45 25.3589 686.226 27.5967 723.131 27.7739C768.949 27.9939 814.41 29.1503 860.175 31.1281C911.388 33.3414 962.622 32.4138 1013.72 36.4948C1055.32 39.8173 1096.58 44.9281 1137.97 49.5091" stroke="black" stroke-width="3" stroke-linecap="round"/>
<path d="M45.4877 57.9617C61.1367 57.9617 76.8519 56.9423 92.5439 56.6871C131.774 56.0491 170.739 56.7542 209.974 56.7542C304.581 56.7542 399.081 55.6624 493.658 54.4063C536.296 53.84 578.84 55.3888 621.443 55.5467C673.81 55.7408 726.583 53.91 778.858 56.7542C898.525 63.2651 1017.95 69.2952 1136.45 84.527" stroke="black" stroke-width="3" stroke-linecap="round"/>
<path d="M48.5182 18.1138C44.8482 29.0813 47.3914 41.771 48.5182 52.8633C48.5742 53.4153 51.5063 73.9991 52.7271 73.3911C54.3033 72.606 55.8462 71.7128 57.6095 71.2444" stroke="black" stroke-width="3" stroke-linecap="round"/>
<path d="M1045.54 22.9438C1058.39 20.8962 1071.65 22.2791 1084.51 23.6818C1112.1 26.6906 1138.91 30.0377 1166.76 31.3964" stroke="black" stroke-width="3" stroke-linecap="round"/>
<path d="M1153.12 28.9814C1153.12 17.4206 1153.32 52.1052 1153.04 63.6639C1152.93 67.8514 1155.13 86.4069 1148.57 88.1495" stroke="black" stroke-width="3" stroke-linecap="round"/>
<path d="M1156.15 89.3571C1153.89 89.3571 1152.17 90.012 1150.09 90.5646" stroke="black" stroke-width="3" stroke-linecap="round"/>
</svg>
