<svg width="504" height="540" viewBox="0 0 504 540" fill="none" xmlns="http://www.w3.org/2000/svg">
<rect x="55" y="337.551" width="298" height="53" rx="1" transform="rotate(-90 55 337.551)" fill="#6F3A1C" stroke="#8E4F2C" stroke-width="2"/>
<rect x="383" y="338.551" width="248" height="53" rx="1" transform="rotate(-90 383 338.551)" fill="#6F3A1C" stroke="#8E4F2C" stroke-width="2"/>
<rect x="8.42314" y="7.72322" width="498" height="38" rx="1" transform="rotate(11 8.42314 7.72322)" fill="#6F3A1C" stroke="#8E4F2C" stroke-width="2"/>
<rect x="2.9082" y="0.550781" width="510" height="10" rx="4" transform="rotate(11 2.9082 0.550781)" fill="url(#paint0_linear_14_4)"/>
<rect x="9.37609" y="500.796" width="128" height="38" rx="1" transform="rotate(-2 9.37609 500.796)" fill="#995834" stroke="#8E4F2C" stroke-width="2"/>
<rect x="96" y="498.551" width="138" height="38" rx="1" fill="#995834" stroke="#8E4F2C" stroke-width="2"/>
<rect x="346" y="495.551" width="128" height="38" rx="1" fill="#995834" stroke="#8E4F2C" stroke-width="2"/>
<rect x="189.681" y="495.568" width="128" height="38" rx="1" transform="rotate(1 189.681 495.568)" fill="#995834" stroke="#8E4F2C" stroke-width="2"/>
<rect x="278.034" y="498.355" width="108" height="38" rx="1" transform="rotate(-2 278.034 498.355)" fill="#995834" stroke="#8E4F2C" stroke-width="2"/>
<rect x="182.756" y="468.619" width="138" height="38" rx="1" transform="rotate(-3 182.756 468.619)" fill="#995834" stroke="#8E4F2C" stroke-width="2"/>
<rect x="15.6805" y="465.568" width="178" height="38" rx="1" transform="rotate(1 15.6805 465.568)" fill="#995834" stroke="#8E4F2C" stroke-width="2"/>
<rect x="99.6805" y="433.568" width="178" height="38" rx="1" transform="rotate(1 99.6805 433.568)" fill="#995834" stroke="#8E4F2C" stroke-width="2"/>
<rect x="267.017" y="436.163" width="206" height="38" rx="1" transform="rotate(-1 267.017 436.163)" fill="#995834" stroke="#8E4F2C" stroke-width="2"/>
<rect x="295.82" y="457.568" width="185" height="46" rx="1" transform="rotate(1 295.82 457.568)" fill="#995834" stroke="#8E4F2C" stroke-width="2"/>
<rect x="19" y="313.551" width="138" height="38" rx="1" fill="#6F3A1C" stroke="#8E4F2C" stroke-width="2"/>
<rect x="156.034" y="313.401" width="178" height="38" rx="1" transform="rotate(-2 156.034 313.401)" fill="#6F3A1C" stroke="#8E4F2C" stroke-width="2"/>
<rect x="287" y="306.551" width="178" height="38" rx="1" fill="#6F3A1C" stroke="#8E4F2C" stroke-width="2"/>
<rect x="9.0173" y="438.453" width="108" height="38" rx="1" transform="rotate(-1 9.0173 438.453)" fill="#995834" stroke="#8E4F2C" stroke-width="2"/>
<rect x="76" y="408.551" width="128" height="38" rx="1" fill="#995834" stroke="#8E4F2C" stroke-width="2"/>
<rect x="287" y="403.551" width="158" height="38" rx="1" fill="#995834" stroke="#8E4F2C" stroke-width="2"/>
<rect x="155.017" y="405.977" width="138" height="38" rx="1" transform="rotate(-1 155.017 405.977)" fill="#995834" stroke="#8E4F2C" stroke-width="2"/>
<rect x="376.395" y="392.634" width="108" height="38" rx="1" transform="rotate(5 376.395 392.634)" fill="#995834" stroke="#8E4F2C" stroke-width="2"/>
<rect x="370.681" y="364.568" width="108" height="38" rx="1" transform="rotate(1 370.681 364.568)" fill="#995834" stroke="#8E4F2C" stroke-width="2"/>
<rect x="2.03429" y="408.052" width="128" height="38" rx="1" transform="rotate(-2 2.03429 408.052)" fill="#995834" stroke="#8E4F2C" stroke-width="2"/>
<rect x="9.34214" y="340.349" width="138" height="38" rx="1" transform="rotate(1 9.34214 340.349)" fill="#995834" stroke="#8E4F2C" stroke-width="2"/>
<rect x="141.017" y="341.977" width="138" height="38" rx="1" transform="rotate(-1 141.017 341.977)" fill="#995834" stroke="#8E4F2C" stroke-width="2"/>
<rect x="14.0173" y="367.796" width="185" height="46" rx="1" transform="rotate(-1 14.0173 367.796)" fill="#995834" stroke="#8E4F2C" stroke-width="2"/>
<rect x="189.017" y="372.163" width="206" height="38" rx="1" transform="rotate(-1 189.017 372.163)" fill="#995834" stroke="#8E4F2C" stroke-width="2"/>
<rect x="269.017" y="335.163" width="206" height="38" rx="1" transform="rotate(-1 269.017 335.163)" fill="#995834" stroke="#8E4F2C" stroke-width="2"/>
<circle cx="19" cy="531.551" r="2.5" fill="#1E1E1E" stroke="#303030"/>
<circle cx="105" cy="530.551" r="2.5" fill="#1E1E1E" stroke="#303030"/>
<circle cx="197" cy="526.551" r="2.5" fill="#1E1E1E" stroke="#303030"/>
<circle cx="199" cy="511.551" r="2.5" fill="#1E1E1E" stroke="#303030"/>
<circle cx="186" cy="478.551" r="2.5" fill="#1E1E1E" stroke="#303030"/>
<circle cx="201" cy="498.551" r="2.5" fill="#1E1E1E" stroke="#303030"/>
<circle cx="288" cy="528.551" r="2.5" fill="#1E1E1E" stroke="#303030"/>
<circle cx="288" cy="507.551" r="2.5" fill="#1E1E1E" stroke="#303030"/>
<circle cx="379" cy="524.551" r="2.5" fill="#1E1E1E" stroke="#303030"/>
<circle cx="467" cy="526.551" r="2.5" fill="#1E1E1E" stroke="#303030"/>
<circle cx="469" cy="499.551" r="2.5" fill="#1E1E1E" stroke="#303030"/>
<circle cx="467" cy="484.551" r="2.5" fill="#1E1E1E" stroke="#303030"/>
<circle cx="465" cy="467.551" r="2.5" fill="#1E1E1E" stroke="#303030"/>
<circle cx="381" cy="422.551" r="2.5" fill="#1E1E1E" stroke="#303030"/>
<circle cx="469" cy="429.551" r="2.5" fill="#1E1E1E" stroke="#303030"/>
<circle cx="303" cy="433.551" r="2.5" fill="#1E1E1E" stroke="#303030"/>
<circle cx="303" cy="415.551" r="2.5" fill="#1E1E1E" stroke="#303030"/>
<circle cx="163" cy="437.551" r="2.5" fill="#1E1E1E" stroke="#303030"/>
<circle cx="193" cy="435.551" r="2.5" fill="#1E1E1E" stroke="#303030"/>
<circle cx="163" cy="417.551" r="2.5" fill="#1E1E1E" stroke="#303030"/>
<circle cx="21" cy="470.551" r="2.5" fill="#1E1E1E" stroke="#303030"/>
<circle cx="23" cy="497.551" r="2.5" fill="#1E1E1E" stroke="#303030"/>
<circle cx="14" cy="452.551" r="2.5" fill="#1E1E1E" stroke="#303030"/>
<circle cx="18" cy="437.551" r="2.5" fill="#1E1E1E" stroke="#303030"/>
<circle cx="16" cy="419.551" r="2.5" fill="#1E1E1E" stroke="#303030"/>
<circle cx="23" cy="405.551" r="2.5" fill="#1E1E1E" stroke="#303030"/>
<circle cx="23" cy="374.551" r="2.5" fill="#1E1E1E" stroke="#303030"/>
<circle cx="41" cy="374.551" r="2.5" fill="#1E1E1E" stroke="#303030"/>
<circle cx="49" cy="405.551" r="2.5" fill="#1E1E1E" stroke="#303030"/>
<circle cx="72" cy="405.551" r="2.5" fill="#1E1E1E" stroke="#303030"/>
<circle cx="18" cy="346.551" r="2.5" fill="#1E1E1E" stroke="#303030"/>
<circle cx="150" cy="348.551" r="2.5" fill="#1E1E1E" stroke="#303030"/>
<circle cx="25" cy="334.551" r="2.5" fill="#1E1E1E" stroke="#303030"/>
<circle cx="150" cy="319.551" r="2.5" fill="#1E1E1E" stroke="#303030"/>
<circle cx="150" cy="336.551" r="2.5" fill="#1E1E1E" stroke="#303030"/>
<circle cx="165" cy="319.551" r="2.5" fill="#1E1E1E" stroke="#303030"/>
<circle cx="165" cy="334.551" r="2.5" fill="#1E1E1E" stroke="#303030"/>
<circle cx="62" cy="319.551" r="2.5" fill="#1E1E1E" stroke="#303030"/>
<circle cx="84" cy="321.551" r="2.5" fill="#1E1E1E" stroke="#303030"/>
<circle cx="182" cy="372.551" r="2.5" fill="#1E1E1E" stroke="#303030"/>
<circle cx="182" cy="402.551" r="2.5" fill="#1E1E1E" stroke="#303030"/>
<circle cx="199" cy="402.551" r="2.5" fill="#1E1E1E" stroke="#303030"/>
<circle cx="197" cy="379.551" r="2.5" fill="#1E1E1E" stroke="#303030"/>
<circle cx="182" cy="387.551" r="2.5" fill="#1E1E1E" stroke="#303030"/>
<circle cx="386" cy="398.551" r="2.5" fill="#1E1E1E" stroke="#303030"/>
<circle cx="386" cy="377.551" r="2.5" fill="#1E1E1E" stroke="#303030"/>
<circle cx="465" cy="361.551" r="2.5" fill="#1E1E1E" stroke="#303030"/>
<circle cx="467" cy="339.551" r="2.5" fill="#1E1E1E" stroke="#303030"/>
<circle cx="468" cy="395.551" r="2.5" fill="#1E1E1E" stroke="#303030"/>
<circle cx="277" cy="365.551" r="2.5" fill="#1E1E1E" stroke="#303030"/>
<circle cx="277" cy="341.551" r="2.5" fill="#1E1E1E" stroke="#303030"/>
<circle cx="279" cy="317.551" r="2.5" fill="#1E1E1E" stroke="#303030"/>
<circle cx="296" cy="313.551" r="2.5" fill="#1E1E1E" stroke="#303030"/>
<circle cx="294" cy="329.551" r="2.5" fill="#1E1E1E" stroke="#303030"/>
<circle cx="435" cy="313.551" r="2.5" fill="#1E1E1E" stroke="#303030"/>
<circle cx="414" cy="313.551" r="2.5" fill="#1E1E1E" stroke="#303030"/>
<circle cx="457" cy="325.551" r="2.5" fill="#1E1E1E" stroke="#303030"/>
<circle cx="124" cy="434.551" r="2.5" fill="#1E1E1E" stroke="#303030"/>
<circle cx="124" cy="417.551" r="2.5" fill="#1E1E1E" stroke="#303030"/>
<circle cx="82" cy="437.551" r="2.5" fill="#1E1E1E" stroke="#303030"/>
<circle cx="104" cy="435.551" r="2.5" fill="#1E1E1E" stroke="#303030"/>
<circle cx="109" cy="466.551" r="2.5" fill="#1E1E1E" stroke="#303030"/>
<circle cx="471" cy="410.551" r="2.5" fill="#1E1E1E" stroke="#303030"/>
<circle cx="303" cy="496.551" r="2.5" fill="#1E1E1E" stroke="#303030"/>
<circle cx="303" cy="480.551" r="2.5" fill="#1E1E1E" stroke="#303030"/>
<circle cx="303" cy="462.551" r="2.5" fill="#1E1E1E" stroke="#303030"/>
<circle cx="275" cy="468.551" r="2.5" fill="#1E1E1E" stroke="#303030"/>
<circle cx="259" cy="468.551" r="2.5" fill="#1E1E1E" stroke="#303030"/>
<circle cx="259" cy="448.551" r="2.5" fill="#1E1E1E" stroke="#303030"/>
<circle cx="224" cy="511.551" r="2.5" fill="#1E1E1E" stroke="#303030"/>
<circle cx="18" cy="508.551" r="2.5" fill="#1E1E1E" stroke="#303030"/>
<defs>
<linearGradient id="paint0_linear_14_4" x1="2.9082" y1="5.55078" x2="512.908" y2="5.55078" gradientUnits="userSpaceOnUse">
<stop stop-color="#3F0000"/>
<stop offset="1" stop-color="#550000"/>
</linearGradient>
</defs>
</svg>
