<svg width="290" height="396" viewBox="0 0 290 396" fill="none" xmlns="http://www.w3.org/2000/svg">
<rect width="14.5264" height="174.317" rx="5" transform="matrix(-6.00719e-10 -1 -1 6.00719e-10 231.809 236.069)" fill="#E2650B"/>
<rect width="14.5264" height="174.317" rx="5" transform="matrix(-6.00719e-10 -1 -1 6.00719e-10 231.809 395.859)" fill="#E2650B"/>
<rect width="14.5264" height="174.317" rx="5" transform="matrix(-1 6.00719e-10 6.00719e-10 1 72.0179 221.542)" fill="#E2650B"/>
<rect width="14.5264" height="174.317" rx="5" transform="matrix(-1 6.00719e-10 6.00719e-10 1 231.809 221.542)" fill="#E2650B"/>
<rect width="14.5264" height="231.842" rx="5" transform="matrix(-0.707107 -0.707107 -0.707107 0.707107 231.809 231.814)" fill="#E2650B"/>
<rect width="14.5264" height="231.842" rx="5" transform="matrix(-0.707107 0.707107 0.707107 0.707107 67.8718 221.542)" fill="#E2650B"/>
<rect width="29.0528" height="174.317" transform="matrix(-6.00719e-10 -1 -1 6.00719e-10 231.809 224.046)" fill="#E2650B"/>
<rect width="11.6211" height="145.264" rx="5.81057" transform="matrix(-6.00719e-10 -1 -1 6.00719e-10 217.282 215.33)" fill="#8D3E06"/>
<rect width="14.5264" height="174.317" rx="5" transform="matrix(-6.00719e-10 -1 -1 6.00719e-10 231.809 37.5265)" fill="#E2650B"/>
<rect width="14.5264" height="174.317" rx="5" transform="matrix(-6.00719e-10 -1 -1 6.00719e-10 231.809 197.317)" fill="#E2650B"/>
<rect width="14.5264" height="174.317" rx="5" transform="matrix(-1 6.00719e-10 6.00719e-10 1 72.0179 23)" fill="#E2650B"/>
<rect width="14.5264" height="174.317" rx="5" transform="matrix(-1 6.00719e-10 6.00719e-10 1 231.809 23)" fill="#E2650B"/>
<rect width="14.5264" height="231.842" rx="5" transform="matrix(-0.707107 -0.707107 -0.707107 0.707107 231.809 33.2717)" fill="#E2650B"/>
<rect width="14.5264" height="231.842" rx="5" transform="matrix(-0.707107 0.707107 0.707107 0.707107 67.8718 23)" fill="#E2650B"/>
<path d="M263 27C277.912 27 290 14.9117 290 0V0L-1.62194e-08 1.74209e-07V1.74209e-07C-7.26169e-09 14.9117 12.0883 27 27 27L263 27Z" fill="#6D340B"/>
</svg>
