<svg width="1666" height="292" viewBox="0 0 1666 292" fill="none" xmlns="http://www.w3.org/2000/svg">
<rect x="3.37903" y="136.458" width="415.843" height="55" rx="8" transform="rotate(-4 3.37903 136.458)" fill="#B2B2B2"/>
<rect x="161.078" y="180.068" width="1500" height="50" rx="20" transform="rotate(-4 161.078 180.068)" fill="#6B3108"/>
<line x1="227.967" y1="119.988" x2="239.968" y2="225.988" stroke="black" stroke-width="10"/>
<line x1="243.994" y1="118.317" x2="248.994" y2="225.317" stroke="black" stroke-width="10"/>
<line x1="253.991" y1="118.268" x2="259.991" y2="224.268" stroke="black" stroke-width="10"/>
<line x1="264.997" y1="117.409" x2="267.997" y2="223.409" stroke="black" stroke-width="10"/>
<line x1="274.996" y1="116.362" x2="278.996" y2="222.362" stroke="black" stroke-width="10"/>
<line x1="284.996" y1="115.364" x2="288.996" y2="222.364" stroke="black" stroke-width="10"/>
<line x1="294.989" y1="114.224" x2="301.989" y2="221.224" stroke="black" stroke-width="10"/>
<line x1="306.989" y1="114.224" x2="313.989" y2="221.224" stroke="black" stroke-width="10"/>
<line x1="318.996" y1="112.369" x2="322.996" y2="222.369" stroke="black" stroke-width="10"/>
<line x1="328.994" y1="112.317" x2="333.994" y2="219.317" stroke="black" stroke-width="10"/>
<line x1="338.992" y1="111.273" x2="344.992" y2="219.273" stroke="black" stroke-width="10"/>
<line x1="1414.76" y1="28.789" x2="1476.68" y2="24.4591" stroke="#6B3108" stroke-width="5"/>
<line x1="1418.86" y1="27.7233" x2="1424.01" y2="93.6433" stroke="#6B3108" stroke-width="8"/>
<path d="M1476.83 16.2732L1495.39 14.9752C1498.15 14.7826 1500.54 16.8595 1500.73 19.6142L1501.13 25.3387C1501.32 28.0934 1499.25 30.4827 1496.49 30.6753L1477.93 31.9733L1476.83 16.2732Z" fill="#B2B2B2"/>
<path d="M1466.86 13.5901L1475.72 12.9702C1476.83 12.8932 1477.78 13.724 1477.86 14.8258L1479.23 34.3858C1479.3 35.4877 1478.47 36.4434 1477.37 36.5204L1468.51 37.1403L1466.86 13.5901Z" fill="#B2B2B2"/>
<line x1="1539.76" y1="20.7893" x2="1601.68" y2="16.4593" stroke="#6B3108" stroke-width="5"/>
<line x1="1543.86" y1="19.7235" x2="1549.01" y2="85.6435" stroke="#6B3108" stroke-width="8"/>
<path d="M1601.83 8.27344L1620.39 6.97543C1623.15 6.7828 1625.54 8.85977 1625.73 11.6145L1626.13 17.339C1626.32 20.0937 1624.25 22.4829 1621.49 22.6756L1602.93 23.9736L1601.83 8.27344Z" fill="#B2B2B2"/>
<path d="M1591.86 5.59033L1600.72 4.97047C1601.82 4.89342 1602.78 5.72421 1602.86 6.82609L1604.23 26.3861C1604.3 27.4879 1603.47 28.4436 1602.37 28.5207L1593.51 29.1406L1591.86 5.59033Z" fill="#B2B2B2"/>
<line y1="-2.5" x2="62.0725" y2="-2.5" transform="matrix(0.996195 -0.0871557 -0.0871557 -0.996195 1556.77 192.369)" stroke="#6B3108" stroke-width="5"/>
<line y1="-4" x2="66.121" y2="-4" transform="matrix(-0.0790104 -0.996874 -0.996874 0.0790104 1557.22 195.586)" stroke="#6B3108" stroke-width="8"/>
<path d="M1620.26 197.511L1638.8 195.889C1641.55 195.648 1643.58 193.223 1643.34 190.472L1642.84 184.755C1642.6 182.005 1640.17 179.97 1637.42 180.21L1618.89 181.832L1620.26 197.511Z" fill="#B2B2B2"/>
<path d="M1610.83 201.721L1619.68 200.946C1620.78 200.85 1621.6 199.88 1621.5 198.78L1619.79 179.246C1619.69 178.146 1618.72 177.332 1617.62 177.428L1608.77 178.203L1610.83 201.721Z" fill="#B2B2B2"/>
<line y1="-2.5" x2="62.0725" y2="-2.5" transform="matrix(0.996195 -0.0871557 -0.0871557 -0.996195 1431.77 204.369)" stroke="#6B3108" stroke-width="5"/>
<line y1="-4" x2="66.121" y2="-4" transform="matrix(-0.0790104 -0.996874 -0.996874 0.0790104 1432.22 207.586)" stroke="#6B3108" stroke-width="8"/>
<path d="M1495.26 209.511L1513.8 207.889C1516.55 207.648 1518.58 205.223 1518.34 202.472L1517.84 196.755C1517.6 194.005 1515.17 191.97 1512.42 192.21L1493.89 193.832L1495.26 209.511Z" fill="#B2B2B2"/>
<path d="M1485.83 213.721L1494.68 212.946C1495.78 212.85 1496.6 211.88 1496.5 210.78L1494.79 191.246C1494.69 190.146 1493.72 189.332 1492.62 189.428L1483.77 190.203L1485.83 213.721Z" fill="#B2B2B2"/>
</svg>
