<svg width="198" height="400" viewBox="0 0 198 400" fill="none" xmlns="http://www.w3.org/2000/svg">
<rect width="29.0528" height="197.559" transform="matrix(-6.00719e-10 -1 -1 6.00719e-10 197.559 399.767)" fill="#E2650B"/>
<rect width="14.5264" height="174.317" rx="5" transform="matrix(-6.00719e-10 -1 -1 6.00719e-10 185.938 213.248)" fill="#E2650B"/>
<rect width="14.5264" height="174.317" rx="5" transform="matrix(-6.00719e-10 -1 -1 6.00719e-10 185.938 373.038)" fill="#E2650B"/>
<rect width="14.5264" height="174.317" rx="5" transform="matrix(-1 6.00719e-10 6.00719e-10 1 26.1475 198.721)" fill="#E2650B"/>
<rect width="14.5264" height="174.317" rx="5" transform="matrix(-1 6.00719e-10 6.00719e-10 1 185.938 198.721)" fill="#E2650B"/>
<rect width="14.5264" height="231.842" rx="5" transform="matrix(-0.707107 -0.707107 -0.707107 0.707107 185.938 208.993)" fill="#E2650B"/>
<rect width="14.5264" height="231.842" rx="5" transform="matrix(-0.707107 0.707107 0.707107 0.707107 22.0014 198.721)" fill="#E2650B"/>
<rect width="29.0528" height="174.317" transform="matrix(-6.00719e-10 -1 -1 6.00719e-10 185.938 201.046)" fill="#E2650B"/>
<rect width="11.6211" height="145.264" rx="5.81057" transform="matrix(-6.00719e-10 -1 -1 6.00719e-10 171.412 192.33)" fill="#8D3E06"/>
<rect width="14.5264" height="174.317" rx="5" transform="matrix(-6.00719e-10 -1 -1 6.00719e-10 185.938 14.5265)" fill="#E2650B"/>
<rect width="14.5264" height="174.317" rx="5" transform="matrix(-6.00719e-10 -1 -1 6.00719e-10 185.938 174.317)" fill="#E2650B"/>
<rect width="14.5264" height="174.317" rx="5" transform="matrix(-1 6.00719e-10 6.00719e-10 1 26.1475 0)" fill="#E2650B"/>
<rect width="14.5264" height="174.317" rx="5" transform="matrix(-1 6.00719e-10 6.00719e-10 1 185.938 0)" fill="#E2650B"/>
<rect width="14.5264" height="231.842" rx="5" transform="matrix(-0.707107 -0.707107 -0.707107 0.707107 185.938 10.2717)" fill="#E2650B"/>
<rect width="14.5264" height="231.842" rx="5" transform="matrix(-0.707107 0.707107 0.707107 0.707107 22.0014 0)" fill="#E2650B"/>
</svg>
