<svg width="474" height="386" viewBox="0 0 474 386" fill="none" xmlns="http://www.w3.org/2000/svg">
<rect x="32.2852" y="50" width="80.7121" height="41.75" rx="5" fill="#D70000" stroke="#B8B8B8" stroke-width="3"/>
<rect x="112.997" y="50" width="80.7121" height="41.75" rx="5" fill="#D70000" stroke="#B8B8B8" stroke-width="3"/>
<rect x="193.709" y="50" width="80.7121" height="41.75" rx="5" fill="#D70000" stroke="#B8B8B8" stroke-width="3"/>
<rect x="274.421" y="50" width="80.7121" height="41.75" rx="5" fill="#D70000" stroke="#B8B8B8" stroke-width="3"/>
<rect x="355.133" y="50" width="80.7121" height="41.75" rx="5" fill="#D70000" stroke="#B8B8B8" stroke-width="3"/>
<rect x="32.2852" y="91.75" width="40.356" height="41.75" rx="5" fill="#D70000" stroke="#B8B8B8" stroke-width="3"/>
<rect x="72.6411" y="91.75" width="80.7121" height="41.75" rx="5" fill="#D70000" stroke="#B8B8B8" stroke-width="3"/>
<rect x="153.353" y="91.75" width="80.7121" height="41.75" rx="5" fill="#D70000" stroke="#B8B8B8" stroke-width="3"/>
<rect x="234.065" y="91.75" width="80.7121" height="41.75" rx="5" fill="#D70000" stroke="#B8B8B8" stroke-width="3"/>
<rect x="314.777" y="91.75" width="80.7121" height="41.75" rx="5" fill="#D70000" stroke="#B8B8B8" stroke-width="3"/>
<rect x="395.489" y="91.75" width="40.356" height="41.75" rx="5" fill="#D70000" stroke="#B8B8B8" stroke-width="3"/>
<rect x="32.2852" y="133.5" width="80.7121" height="41.75" rx="5" fill="#D70000" stroke="#B8B8B8" stroke-width="3"/>
<rect x="112.997" y="133.5" width="80.7121" height="41.75" rx="5" fill="#D70000" stroke="#B8B8B8" stroke-width="3"/>
<rect x="193.709" y="133.5" width="80.7121" height="41.75" rx="5" fill="#D70000" stroke="#B8B8B8" stroke-width="3"/>
<rect x="274.421" y="133.5" width="80.7121" height="41.75" rx="5" fill="#D70000" stroke="#B8B8B8" stroke-width="3"/>
<rect x="355.133" y="133.5" width="80.7121" height="41.75" rx="5" fill="#D70000" stroke="#B8B8B8" stroke-width="3"/>
<rect x="32.2852" y="175.25" width="40.356" height="41.75" rx="5" fill="#D70000" stroke="#B8B8B8" stroke-width="3"/>
<rect x="72.6411" y="175.25" width="80.7121" height="41.75" rx="5" fill="#D70000" stroke="#B8B8B8" stroke-width="3"/>
<rect x="153.353" y="175.25" width="80.7121" height="41.75" rx="5" fill="#D70000" stroke="#B8B8B8" stroke-width="3"/>
<rect x="234.065" y="175.25" width="80.7121" height="41.75" rx="5" fill="#D70000" stroke="#B8B8B8" stroke-width="3"/>
<rect x="314.777" y="175.25" width="80.7121" height="41.75" rx="5" fill="#D70000" stroke="#B8B8B8" stroke-width="3"/>
<rect x="395.489" y="175.25" width="40.356" height="41.75" rx="5" fill="#D70000" stroke="#B8B8B8" stroke-width="3"/>
<rect x="32.2852" y="217" width="80.7121" height="41.75" rx="5" fill="#D70000" stroke="#B8B8B8" stroke-width="3"/>
<rect x="112.997" y="217" width="80.7121" height="41.75" rx="5" fill="#D70000" stroke="#B8B8B8" stroke-width="3"/>
<rect x="193.709" y="217" width="80.7121" height="41.75" rx="5" fill="#D70000" stroke="#B8B8B8" stroke-width="3"/>
<rect x="274.421" y="217" width="80.7121" height="41.75" rx="5" fill="#D70000" stroke="#B8B8B8" stroke-width="3"/>
<rect x="355.133" y="217" width="80.7121" height="41.75" rx="5" fill="#D70000" stroke="#B8B8B8" stroke-width="3"/>
<rect x="32.2852" y="258.75" width="40.356" height="41.75" rx="5" fill="#D70000" stroke="#B8B8B8" stroke-width="3"/>
<rect x="72.6411" y="258.75" width="80.7121" height="41.75" rx="5" fill="#D70000" stroke="#B8B8B8" stroke-width="3"/>
<rect x="153.353" y="258.75" width="80.7121" height="41.75" rx="5" fill="#D70000" stroke="#B8B8B8" stroke-width="3"/>
<rect x="234.065" y="258.75" width="80.7121" height="41.75" rx="5" fill="#D70000" stroke="#B8B8B8" stroke-width="3"/>
<rect x="314.777" y="258.75" width="80.7121" height="41.75" rx="5" fill="#D70000" stroke="#B8B8B8" stroke-width="3"/>
<rect x="395.489" y="258.75" width="40.356" height="41.75" rx="5" fill="#D70000" stroke="#B8B8B8" stroke-width="3"/>
<rect x="32.2852" y="300.5" width="80.7121" height="41.75" rx="5" fill="#D70000" stroke="#B8B8B8" stroke-width="3"/>
<rect x="112.997" y="300.5" width="80.7121" height="41.75" rx="5" fill="#D70000" stroke="#B8B8B8" stroke-width="3"/>
<rect x="193.709" y="300.5" width="80.7121" height="41.75" rx="5" fill="#D70000" stroke="#B8B8B8" stroke-width="3"/>
<rect x="274.421" y="300.5" width="80.7121" height="41.75" rx="5" fill="#D70000" stroke="#B8B8B8" stroke-width="3"/>
<rect x="355.133" y="300.5" width="80.7121" height="41.75" rx="5" fill="#D70000" stroke="#B8B8B8" stroke-width="3"/>
<rect x="32.2852" y="342.25" width="40.356" height="41.75" rx="5" fill="#D70000" stroke="#B8B8B8" stroke-width="3"/>
<rect x="72.6411" y="342.25" width="80.7121" height="41.75" rx="5" fill="#D70000" stroke="#B8B8B8" stroke-width="3"/>
<rect x="153.353" y="342.25" width="80.7121" height="41.75" rx="5" fill="#D70000" stroke="#B8B8B8" stroke-width="3"/>
<rect x="234.065" y="342.25" width="80.7121" height="41.75" rx="5" fill="#D70000" stroke="#B8B8B8" stroke-width="3"/>
<rect x="314.777" y="342.25" width="80.7121" height="41.75" rx="5" fill="#D70000" stroke="#B8B8B8" stroke-width="3"/>
<rect x="395.489" y="342.25" width="40.356" height="41.75" rx="5" fill="#D70000" stroke="#B8B8B8" stroke-width="3"/>
<rect width="474" height="50" rx="13" fill="#303030"/>
<path d="M153.383 194.403C153.383 190.109 152.905 186.419 151.568 182.407C151.508 182.227 151.494 181.654 151.523 181.841C151.577 182.196 152.018 185.747 152.044 185.741C152.935 185.518 151.277 179.061 150.957 177.942C150.898 177.735 150.196 177.559 150.02 177.525C149.594 177.443 150.057 179.802 150.228 180.145C150.333 180.355 148.563 179.988 148.531 179.981C145.651 179.376 143.393 177.737 140.851 176.379C140.168 176.014 138.053 175.268 138.827 175.233C139.566 175.199 140.479 175.712 141.209 175.858C143.057 176.228 144.8 176.738 146.686 176.989" stroke="#B8B8B8" stroke-width="3" stroke-linecap="round"/>
<path d="M156.33 177.257C155.557 178.03 154.562 179.075 154.455 180.204C154.321 181.611 153.334 182.739 153.115 184.103C152.855 185.729 152.17 186.754 152.46 188.494C152.829 190.706 153.386 192.531 154.991 194.135" stroke="#B8B8B8" stroke-width="3" stroke-linecap="round"/>
<path d="M145.346 176.186C146.474 176.298 149.333 176.927 149.901 178.061" stroke="#B8B8B8" stroke-width="3" stroke-linecap="round"/>
<path d="M303.677 176.186C304.628 176.281 305.834 176.969 306.668 177.421C308.497 178.411 310.789 178.472 312.518 179.46C313.348 179.935 313.792 180.889 313.887 181.722C313.952 182.293 315.339 186.679 314.869 186.574C312.757 186.105 311.99 182.776 311.654 181.008C311.532 180.362 310.746 177.656 310.895 177.763C311.329 178.073 313.939 180.558 314.393 179.877C314.79 179.28 315.197 176.706 315.197 178.239C315.197 180.511 316.096 183.693 315.197 185.83C314.878 186.587 314.661 187.548 314.661 188.375C314.661 189.728 314.929 185.679 314.929 184.327C314.929 182.676 315.236 181.352 315.479 179.772C315.621 178.854 316.413 175.198 317.608 176.989" stroke="#B8B8B8" stroke-width="3" stroke-linecap="round"/>
<path d="M307.16 92.3319C310.287 92.6446 312.209 95.6581 312.92 98.3597C313.913 102.133 314.041 105.897 314.929 109.746" stroke="#B8B8B8" stroke-width="3" stroke-linecap="round"/>
<path d="M107.036 217.443C108.299 217.503 110 218.027 110.995 218.842C111.586 219.325 111.436 220.489 111.724 221.193C112.504 223.1 112.93 225.831 112.93 227.891" stroke="#B8B8B8" stroke-width="3" stroke-linecap="round"/>
<path d="M106.232 133.053C108.053 133.053 108.999 135.734 109.656 137.072C110.469 138.728 111.486 140.526 111.799 142.37C112.284 145.23 113.466 148.041 113.466 151.003C113.466 154.292 114.142 144.331 115.549 141.358C116.477 139.401 115.938 136.95 116.949 134.929" stroke="#B8B8B8" stroke-width="3" stroke-linecap="round"/>
<path d="M115.877 132.785C114.868 133.907 114.538 135.831 114.002 137.25C112.679 140.752 113.042 145.073 114.002 148.591" stroke="#B8B8B8" stroke-width="3" stroke-linecap="round"/>
<path d="M71.8637 107.504C71.9867 103.691 73.5534 100.167 73.7604 96.4397C73.7901 95.9061 74.5206 92.885 74.4278 92.9272C72.9599 93.5944 72.2612 94.3192 70.5992 94.2268C69.7563 94.18 70.6304 94.1694 71.1612 94.5429C71.8939 95.0585 71.8354 95.8922 71.8637 96.6856C71.9159 98.1466 72.1798 99.6057 72.1798 101.111C72.1798 103.804 72.1622 106.415 72.4959 109.085" stroke="#B8B8B8" stroke-width="3" stroke-linecap="round"/>
<path d="M114.541 312.985C114.415 310.971 114.149 309.156 114.47 307.154C114.616 306.246 114.465 304.272 115.243 303.571C115.736 303.127 116.072 305.901 116.121 306.346C116.209 307.132 116.619 310.938 116.42 308.454C116.297 306.916 116.121 305.435 116.121 303.852C116.121 301.406 117.009 305.677 117.509 306.399C117.753 306.751 118.149 304.62 118.194 304.414C118.48 303.107 118.287 305.336 118.562 305.696C119.359 306.738 121.452 303.294 120.863 303.571C118.986 304.454 117.565 311.121 116.262 310.947C116.017 310.915 116.983 309.008 117.035 308.875C117.382 307.981 117.494 306.976 117.632 306.03C117.863 304.442 117.919 303.466 118.791 302.096C119.294 301.305 119.94 302.989 120.687 303.202C121.157 303.336 119.145 306.984 118.984 307.575C118.854 308.052 118.808 309.314 118.457 309.665C117.688 310.434 116.791 310.828 116.121 311.72" stroke="#B8B8B8" stroke-width="3" stroke-linecap="round"/>
<path d="M227.085 260.357C229.21 262.555 231.937 264.981 231.937 268.241C231.937 269.063 231.386 266.673 231.331 266.489C231.049 265.549 230.386 265.203 230.006 264.4C229.446 263.219 230.057 261.283 229.893 259.975C229.754 258.858 229.939 259.952 230.343 260.582C230.967 261.557 231.651 262.503 232.117 263.569C232.597 264.666 233.142 265.566 233.869 266.512C234.618 267.485 234.768 270.621 234.768 271.88C234.768 273.161 234.768 274.441 234.768 275.721" stroke="#B8B8B8" stroke-width="3" stroke-linecap="round"/>
<path d="M250.232 174.627C253.982 174.052 257.574 172.999 261.387 172.957C264.304 172.925 267.575 173.016 270.176 171.496C270.971 171.032 271.639 170.35 272.402 169.873C272.546 169.783 272.08 170.805 272.054 170.847C271.651 171.511 271.186 171.709 270.57 172.157C269.951 172.607 269.174 173.194 268.691 173.792C268.283 174.299 270.9 173.819 271.034 173.792C272.973 173.404 272.353 173.511 271.011 173.699C270.5 173.771 268.831 173.715 268.483 174.163C268.463 174.189 269.023 174.148 269.109 174.093C269.888 173.598 270.659 172.984 271.312 172.331" stroke="#B8B8B8" stroke-width="3" stroke-linecap="round"/>
</svg>
