<svg width="1569" height="58" viewBox="0 0 1569 58" fill="none" xmlns="http://www.w3.org/2000/svg">
<rect y="50.5508" width="8.05796" height="4" fill="#D9D9D9"/>
<rect y="3.55078" width="8.05796" height="4" fill="#D9D9D9"/>
<rect x="1558.64" y="50.5508" width="8.05796" height="4" fill="#D9D9D9"/>
<rect x="1558.64" y="3.55078" width="8.05796" height="4" fill="#D9D9D9"/>
<rect x="6.90674" y="3.55078" width="1551.73" height="52" fill="#D9D9D9"/>
<line y1="2.05078" x2="1569" y2="2.05078" stroke="black" stroke-width="3"/>
<line y1="8.05078" x2="1569" y2="8.05078" stroke="black" stroke-width="3"/>
<line y1="56.0508" x2="1569" y2="56.0508" stroke="black" stroke-width="3"/>
<line y1="49.0508" x2="1569" y2="49.0508" stroke="black" stroke-width="3"/>
<line x1="1" y1="0.550781" x2="1" y2="9.55078" stroke="black" stroke-width="2"/>
<line x1="1" y1="48.5508" x2="1" y2="56.5508" stroke="black" stroke-width="2"/>
<line x1="1567.7" y1="48.5508" x2="1567.7" y2="55.5508" stroke="black" stroke-width="2"/>
<line x1="1567.7" y1="2.55078" x2="1567.7" y2="7.55078" stroke="black" stroke-width="2"/>
<line x1="8.40674" y1="9.55078" x2="8.40674" y2="50.5508" stroke="black" stroke-width="3"/>
<line x1="1560.14" y1="9.55078" x2="1560.14" y2="48.5508" stroke="black" stroke-width="3"/>
<path d="M1263.37 30.0508H1355.46H1447.56" stroke="black" stroke-width="8"/>
<circle cx="36.5714" cy="21.1222" r="3.57143" fill="black"/>
<circle cx="50.8572" cy="29.6936" r="3.57143" fill="black"/>
<circle cx="65.1428" cy="21.1222" r="3.57143" fill="black"/>
<circle cx="65.1428" cy="38.9794" r="3.57143" fill="black"/>
<circle cx="36.5714" cy="38.9794" r="3.57143" fill="black"/>
<g clip-path="url(#clip0_14_109)">
<path d="M1504.57 23.6936C1506.54 23.6936 1508.14 22.0947 1508.14 20.1222C1508.14 18.1498 1506.54 16.5508 1504.57 16.5508C1502.6 16.5508 1501 18.1498 1501 20.1222C1501 22.0947 1502.6 23.6936 1504.57 23.6936Z" fill="black"/>
<path d="M1518.86 32.2651C1520.83 32.2651 1522.43 30.6661 1522.43 28.6936C1522.43 26.7212 1520.83 25.1222 1518.86 25.1222C1516.88 25.1222 1515.29 26.7212 1515.29 28.6936C1515.29 30.6661 1516.88 32.2651 1518.86 32.2651Z" fill="black"/>
<path d="M1533.14 23.6936C1535.12 23.6936 1536.71 22.0947 1536.71 20.1222C1536.71 18.1498 1535.12 16.5508 1533.14 16.5508C1531.17 16.5508 1529.57 18.1498 1529.57 20.1222C1529.57 22.0947 1531.17 23.6936 1533.14 23.6936Z" fill="black"/>
<path d="M1533.14 41.5508C1535.12 41.5508 1536.71 39.9518 1536.71 37.9794C1536.71 36.0069 1535.12 34.408 1533.14 34.408C1531.17 34.408 1529.57 36.0069 1529.57 37.9794C1529.57 39.9518 1531.17 41.5508 1533.14 41.5508Z" fill="black"/>
<path d="M1504.57 41.5508C1506.54 41.5508 1508.14 39.9518 1508.14 37.9794C1508.14 36.0069 1506.54 34.408 1504.57 34.408C1502.6 34.408 1501 36.0069 1501 37.9794C1501 39.9518 1502.6 41.5508 1504.57 41.5508Z" fill="black"/>
</g>
<g clip-path="url(#clip1_14_109)">
<path d="M769.571 23.6936C771.544 23.6936 773.143 22.0947 773.143 20.1222C773.143 18.1498 771.544 16.5508 769.571 16.5508C767.599 16.5508 766 18.1498 766 20.1222C766 22.0947 767.599 23.6936 769.571 23.6936Z" fill="black"/>
<path d="M798.143 23.6936C800.115 23.6936 801.714 22.0947 801.714 20.1222C801.714 18.1498 800.115 16.5508 798.143 16.5508C796.17 16.5508 794.571 18.1498 794.571 20.1222C794.571 22.0947 796.17 23.6936 798.143 23.6936Z" fill="black"/>
<path d="M798.143 41.5508C800.115 41.5508 801.714 39.9518 801.714 37.9794C801.714 36.0069 800.115 34.408 798.143 34.408C796.17 34.408 794.571 36.0069 794.571 37.9794C794.571 39.9518 796.17 41.5508 798.143 41.5508Z" fill="black"/>
<path d="M769.571 41.5508C771.544 41.5508 773.143 39.9518 773.143 37.9794C773.143 36.0069 771.544 34.408 769.571 34.408C767.599 34.408 766 36.0069 766 37.9794C766 39.9518 767.599 41.5508 769.571 41.5508Z" fill="black"/>
</g>
<defs>
<clipPath id="clip0_14_109">
<rect width="36" height="25" fill="white" transform="translate(1501 16.5508)"/>
</clipPath>
<clipPath id="clip1_14_109">
<rect width="36" height="25" fill="white" transform="translate(766 16.5508)"/>
</clipPath>
</defs>
</svg>
