<svg width="170" height="171" viewBox="0 0 170 171" fill="none" xmlns="http://www.w3.org/2000/svg">
<rect x="1" y="86.5508" width="83" height="83" rx="1" fill="#7D3A0B" stroke="#74370B" stroke-width="2"/>
<rect x="13" y="118.551" width="58" height="18" fill="#89420F" stroke="#99480E" stroke-width="2"/>
<rect x="13" y="138.551" width="58" height="18" fill="#89420F" stroke="#99480E" stroke-width="2"/>
<rect x="13" y="98.5508" width="58" height="18" fill="#89420F" stroke="#99480E" stroke-width="2"/>
<rect x="86" y="86.5508" width="83" height="83" rx="1" fill="#7D3A0B" stroke="#74370B" stroke-width="2"/>
<rect x="98" y="118.551" width="58" height="18" fill="#89420F" stroke="#99480E" stroke-width="2"/>
<rect x="98" y="138.551" width="58" height="18" fill="#89420F" stroke="#99480E" stroke-width="2"/>
<rect x="98" y="98.5508" width="58" height="18" fill="#89420F" stroke="#99480E" stroke-width="2"/>
<rect x="86" y="1.55078" width="83" height="83" rx="1" fill="#7D3A0B" stroke="#74370B" stroke-width="2"/>
<rect x="98" y="33.5508" width="58" height="18" fill="#89420F" stroke="#99480E" stroke-width="2"/>
<rect x="98" y="53.5508" width="58" height="18" fill="#89420F" stroke="#99480E" stroke-width="2"/>
<rect x="98" y="13.5508" width="58" height="18" fill="#89420F" stroke="#99480E" stroke-width="2"/>
<rect x="1" y="1.55078" width="83" height="83" rx="1" fill="#7D3A0B" stroke="#74370B" stroke-width="2"/>
<rect x="33" y="72.5508" width="58" height="18" transform="rotate(-90 33 72.5508)" fill="#89420F" stroke="#99480E" stroke-width="2"/>
<rect x="53" y="72.5508" width="58" height="18" transform="rotate(-90 53 72.5508)" fill="#89420F" stroke="#99480E" stroke-width="2"/>
<rect x="13" y="72.5508" width="58" height="18" transform="rotate(-90 13 72.5508)" fill="#89420F" stroke="#99480E" stroke-width="2"/>
</svg>
